# xmcd
#
# Track frame offsets: 
#        150
#        29427
#        64460
#        87342
#        102922
#        125957
#        161097
#
# Disc length: 2633 seconds
#
# Revision: 1
# Processed by: cddbd v1.5.2PL0 Copyright (c) Steve Scherf et al.
# Submitted via: ExactAudioCopy v1.0b3
#
DISCID=640a4707
DTITLE=Fred Hersch Trio - Horizons
DYEAR=1985
DGENRE=Jazz
TTITLE0=My Heart Stood Still
TTITLE1=Moon And Sand
TTITLE2=The Star Crossed Lovers
TTITLE3=One Finger Snap
TTITLE4=Surrey With The Frings On Top
TTITLE5=Miyako
TTITLE6=Cloudless Sky
EXTD=YEAR: 1984
EXTT0=
EXTT1=
EXTT2=
EXTT3=
EXTT4=
EXTT5=
EXTT6=
PLAYORDER=
